<?xml version="1.0" encoding="UTF-8"?>
<!-- Generated by Pixelmator Pro 3.6.9 -->
<svg width="236" height="236" viewBox="0 0 236 236" xmlns="http://www.w3.org/2000/svg">
    <path id="Circle" fill="#000000" fill-rule="evenodd" stroke="none" d="M 236 118 C 236 52.830399 183.169601 0 118 0 C 52.830399 0 0 52.830399 0 118 C 0 183.169601 52.830399 236 118 236 C 183.169601 236 236 183.169601 236 118 Z"/>
    <path id="path1" fill="#ed230d" fill-rule="evenodd" stroke="none" d="M 233 118 L 233 118 C 233 54.487244 181.51265 3 118 3 C 54.487347 3 3 54.487244 3 118 L 233 118 Z"/>
    <path id="path2" fill="#ffffff" fill-rule="evenodd" stroke="none" d="M 3 118 L 3 118 C 3 181.512756 54.487381 233 118 233 C 181.512619 233 233 181.512756 233 118 L 3 118 Z"/>
    <path id="path3" fill="none" stroke="#000000" stroke-width="3" stroke-linecap="round" stroke-linejoin="round" d="M 236 117.999962 L 4.2e-05 118.000076"/>
    <path id="path4" fill="#000000" fill-rule="evenodd" stroke="none" d="M 156 118 C 156 97.013184 138.986816 80 118 80 C 97.013184 80 80 97.013184 80 118 C 80 138.986816 97.013184 156 118 156 C 138.986816 156 156 138.986816 156 118 Z"/>
    <path id="path5" fill="#ffffff" fill-rule="evenodd" stroke="none" d="M 153 118 C 153 98.670029 137.329971 83 118 83 C 98.670036 83 83 98.670029 83 118 C 83 137.329956 98.670036 153 118 153 C 137.329971 153 153 137.329956 153 118 Z"/>
</svg>
